<?xml version="1.0" encoding="iso-8859-1"?>
<!-- Generator: Adobe Illustrator 15.0.0, SVG Export Plug-In . SVG Version: 6.00 Build 0)  -->
<!DOCTYPE svg PUBLIC "-//W3C//DTD SVG 1.1//EN" "http://www.w3.org/Graphics/SVG/1.1/DTD/svg11.dtd">
<svg version="1.1" id="Layer_1" xmlns="http://www.w3.org/2000/svg" xmlns:xlink="http://www.w3.org/1999/xlink" x="0px" y="0px"
	 width="962px" height="374px" viewBox="0 0 962 374" style="enable-background:new 0 0 962 374;" xml:space="preserve">
<g>
	<path style="fill:#D6D6D6;" d="M267.491,293.197l0.848,15.26c0,0,303.509,19.499,624.726-15.26c0,0,22.043-5.854,27.129-33.829
		c0,0-275.094,33.909-644.295,14.835l-7.56-1.272L267.491,293.197z"/>
	<path style="fill:#BA1E3F;" d="M271,297.979c0,6.087-4.935,11.021-11.021,11.021H53.021C46.935,309,42,304.065,42,297.979v-15.957
		C42,275.935,46.935,271,53.021,271h206.957c6.087,0,11.021,4.935,11.021,11.021V297.979z"/>
	<g>
		<g>
			<path style="fill:#144047;" d="M84,300.093c0,1.054-0.854,1.907-1.907,1.907h-0.186c-1.053,0-1.907-0.854-1.907-1.907v-21.186
				c0-1.053,0.854-1.907,1.907-1.907h0.186c1.053,0,1.907,0.854,1.907,1.907V300.093z"/>
		</g>
		<g>
			<path style="fill:#144047;" d="M103,300.093c0,1.054-0.854,1.907-1.907,1.907h-0.186c-1.053,0-1.907-0.854-1.907-1.907v-21.186
				c0-1.053,0.854-1.907,1.907-1.907h0.186c1.053,0,1.907,0.854,1.907,1.907V300.093z"/>
		</g>
		<g>
			<path style="fill:#144047;" d="M121,300.093c0,1.054-0.854,1.907-1.907,1.907h-0.186c-1.053,0-1.907-0.854-1.907-1.907v-21.186
				c0-1.053,0.854-1.907,1.907-1.907h0.186c1.053,0,1.907,0.854,1.907,1.907V300.093z"/>
		</g>
		<g>
			<path style="fill:#144047;" d="M140,300.093c0,1.054-0.854,1.907-1.907,1.907h-0.186c-1.053,0-1.907-0.854-1.907-1.907v-21.186
				c0-1.053,0.854-1.907,1.907-1.907h0.186c1.053,0,1.907,0.854,1.907,1.907V300.093z"/>
		</g>
		<g>
			<path style="fill:#144047;" d="M159,300.093c0,1.054-0.854,1.907-1.907,1.907h-0.186c-1.053,0-1.907-0.854-1.907-1.907v-21.186
				c0-1.053,0.854-1.907,1.907-1.907h0.186c1.053,0,1.907,0.854,1.907,1.907V300.093z"/>
		</g>
		<g>
			<path style="fill:#144047;" d="M177,300.093c0,1.054-0.854,1.907-1.907,1.907h-0.186c-1.053,0-1.907-0.854-1.907-1.907v-21.186
				c0-1.053,0.854-1.907,1.907-1.907h0.186c1.053,0,1.907,0.854,1.907,1.907V300.093z"/>
		</g>
		<g>
			<path style="fill:#144047;" d="M196,300.093c0,1.054-0.854,1.907-1.907,1.907h-0.186c-1.053,0-1.907-0.854-1.907-1.907v-21.186
				c0-1.053,0.854-1.907,1.907-1.907h0.186c1.053,0,1.907,0.854,1.907,1.907V300.093z"/>
		</g>
		<g>
			<path style="fill:#144047;" d="M215,300.093c0,1.054-0.854,1.907-1.907,1.907h-0.186c-1.053,0-1.907-0.854-1.907-1.907v-21.186
				c0-1.053,0.854-1.907,1.907-1.907h0.186c1.053,0,1.907,0.854,1.907,1.907V300.093z"/>
		</g>
		<g>
			<path style="fill:#144047;" d="M233,300.093c0,1.054-0.854,1.907-1.907,1.907h-0.186c-1.053,0-1.907-0.854-1.907-1.907v-21.186
				c0-1.053,0.854-1.907,1.907-1.907h0.186c1.053,0,1.907,0.854,1.907,1.907V300.093z"/>
		</g>
	</g>
	<g>
		<path style="fill:#B5B5B5;" d="M916.762,270.813c1.453-3.328,2.646-7.12,3.432-11.445c0,0-275.094,33.909-644.295,14.835
			l-7.56-1.272l-0.629,15.033C608.188,309.014,855.15,279.382,916.762,270.813z"/>
	</g>
	<path style="fill:#282828;" d="M276,324.608c0,1.873-1.519,3.392-3.392,3.392h-14.217c-1.873,0-3.392-1.519-3.392-3.392v-69.217
		c0-1.873,1.519-3.392,3.392-3.392h14.217c1.873,0,3.392,1.519,3.392,3.392V324.608z"/>
</g>
<g>
	<path style="fill:#BA1E3F;" d="M157.156,111.352c0,3.096-1.091,4.644-3.268,4.644c-2.18,0-4.617-1.032-7.31-3.096
		c-2.696-2.064-5.133-4.902-7.31-8.514c-2.18-3.612-3.268-7.482-3.268-11.61c0-5.16,1.634-9.89,4.902-14.19
		c3.268-4.3,8.312-8.054,15.136-11.266c6.821-3.208,15.507-5.703,26.058-7.482c10.548-1.776,23.048-2.666,37.496-2.666
		c0.917,0,2.322,0.374,4.214,1.118c1.892,0.747,3.698,1.664,5.418,2.752c1.72,1.091,3.096,2.352,4.128,3.784
		c1.032,1.435,1.204,2.838,0.516,4.214c-1.951,3.327-3.612,6.337-4.988,9.03c-1.376,2.696-2.58,5.246-3.612,7.654
		c-1.032,2.408-2.008,4.73-2.924,6.966c-0.919,2.236-1.779,4.501-2.58,6.794c-1.263,2.868-2.381,5.649-3.354,8.342
		c-0.976,2.695-1.922,5.418-2.838,8.17c3.44,0,7.31-1.002,11.61-3.01c4.3-2.005,8.686-4.614,13.158-7.826
		c4.472-3.209,8.799-6.907,12.986-11.094c4.184-4.185,7.912-8.455,11.18-12.814c3.268-4.356,5.905-8.6,7.912-12.728
		c2.005-4.128,3.01-7.853,3.01-11.18c0-2.064,0.43-3.381,1.29-3.956c0.86-0.573,1.919-0.602,3.182-0.086
		c1.261,0.516,2.637,1.462,4.128,2.838c1.489,1.376,2.865,2.954,4.128,4.73c1.26,1.779,2.322,3.612,3.182,5.504
		c0.86,1.892,1.29,3.642,1.29,5.246c0,3.096-1.29,6.536-3.87,10.32c-2.58,3.784-5.963,7.684-10.148,11.696
		c-4.187,4.015-8.917,7.941-14.19,11.782c-5.275,3.843-10.637,7.396-16.082,10.664c-5.447,3.268-10.75,6.079-15.91,8.428
		c-5.16,2.352-9.632,3.986-13.416,4.902c0,5.16,0.801,10.379,2.408,15.652c1.604,5.275,3.668,10.32,6.192,15.136
		c2.521,4.816,5.418,9.317,8.686,13.502c3.268,4.187,6.536,7.81,9.804,10.874c3.268,3.061,6.42,5.469,9.46,7.224
		c3.037,1.75,5.646,2.628,7.826,2.628c3.324,0,5.703-0.624,7.138-1.865c1.433-1.245,2.494-2.572,3.182-3.983
		c0.688-1.414,1.29-2.739,1.806-3.983c0.516-1.242,1.462-1.865,2.838-1.865c1.72,0,3.123,0.89,4.214,2.666
		c1.088,1.776,1.776,3.983,2.064,6.622c0.285,2.636,0.113,5.504-0.516,8.6c-0.631,3.096-1.75,5.961-3.354,8.6
		c-1.607,2.636-3.784,4.843-6.536,6.622c-2.752,1.777-6.136,2.666-10.148,2.666c-4.472,0-8.831-1.062-13.072-3.182
		c-4.244-2.124-8.315-4.988-12.212-8.6c-3.899-3.612-7.568-7.855-11.008-12.728c-3.44-4.875-6.566-10.062-9.374-15.566
		c-2.812-5.504-5.276-11.18-7.396-17.028c-2.123-5.848-3.757-11.637-4.902-17.372c-1.951,5.619-3.929,10.75-5.934,15.394
		c-2.008,4.644-4.244,8.63-6.708,11.954c-2.467,3.327-5.219,5.907-8.256,7.74c-3.04,1.835-6.509,2.752-10.406,2.752
		c-4.703,0-8.6-0.831-11.696-2.494c-3.096-1.661-5.533-3.668-7.31-6.02c-1.779-2.349-3.01-4.843-3.698-7.482
		c-0.688-2.636-0.976-4.958-0.86-6.966c0.113-2.005,0.543-3.497,1.29-4.472c0.744-0.973,1.634-0.946,2.666,0.086
		c4.241,4.244,8.17,5.934,11.782,5.074c3.612-0.86,7.022-3.44,10.234-7.74c3.209-4.3,6.219-9.86,9.03-16.684
		c2.808-6.821,5.504-14.018,8.084-21.586s5.074-15.05,7.482-22.446s4.816-13.846,7.224-19.35
		c-8.256,0.688-15.251,1.806-20.984,3.354c-5.735,1.548-10.436,3.354-14.104,5.418c-3.671,2.064-6.509,4.359-8.514,6.88
		c-2.008,2.524-3.47,5.16-4.386,7.912c-0.919,2.752-1.462,5.477-1.634,8.17C157.242,106.222,157.156,108.831,157.156,111.352z"/>
	<path style="fill:#BA1E3F;" d="M259.119,150.912c0-9.401,1.862-17.458,5.59-24.166c3.725-6.708,8.111-12.212,13.158-16.512
		c5.044-4.3,10.119-7.482,15.222-9.546c5.101-2.064,9.03-3.096,11.782-3.096c2.865,0,5.217,0.403,7.052,1.204
		c1.833,0.804,3.327,1.806,4.482,3.01c1.153,1.204,1.962,2.553,2.424,4.042c0.462,1.491,0.693,2.867,0.693,4.128
		c0,2.983-0.376,5.59-1.126,7.826c-0.752,2.236-1.763,4.158-3.034,5.762c1.387,0.344,2.625,0.833,3.722,1.462
		c1.094,0.632,1.986,1.29,2.674,1.978s1.089,1.435,1.204,2.236c0.113,0.803-0.231,1.607-1.032,2.408
		c-1.376,1.376-2.989,3.612-4.832,6.708c-1.847,3.096-3.4,6.251-4.66,9.46c-1.263,3.211-1.951,6.05-2.064,8.514
		c-0.115,2.467,0.917,3.698,3.096,3.698c1.376,0,2.929-0.688,4.66-2.064s3.456-3.123,5.176-5.246c1.72-2.12,3.44-4.413,5.16-6.88
		c1.72-2.464,3.354-4.757,4.902-6.88c1.548-2.121,2.895-3.87,4.042-5.246c1.145-1.376,2.064-2.064,2.752-2.064
		c1.948,0,3.037,1.263,3.268,3.784c0.229,2.523-0.288,5.649-1.548,9.374c-1.263,3.728-3.125,7.77-5.59,12.126
		c-2.467,4.359-5.391,8.401-8.772,12.126c-3.384,3.728-7.144,6.853-11.282,9.374c-4.139,2.523-8.444,3.784-12.916,3.784
		c-3.327,0-5.762-1.002-7.31-3.01c-1.548-2.005-2.609-4.271-3.182-6.794c-0.688-2.98-0.86-6.305-0.516-9.976
		c-1.72,2.983-3.556,5.62-5.504,7.912c-1.607,1.951-3.383,3.728-5.332,5.332c-1.951,1.607-3.843,2.408-5.676,2.408
		c-1.951,0-3.899-0.516-5.848-1.548c-1.951-1.032-3.728-2.666-5.332-4.902c-1.607-2.236-2.924-5.044-3.956-8.428
		C259.635,159.829,259.119,155.728,259.119,150.912z M304.731,111.868c-3.44,0-6.651,1.032-9.632,3.096
		c-2.983,2.064-5.59,4.674-7.826,7.826c-2.236,3.155-4.071,6.536-5.504,10.148c-1.435,3.612-2.322,6.996-2.666,10.148
		c-0.344,3.155-0.145,5.762,0.602,7.826c0.744,2.064,2.207,3.096,4.386,3.096c1.949,0,3.698-0.774,5.246-2.322
		s2.951-3.467,4.214-5.762c1.261-2.292,2.408-4.757,3.44-7.396c1.032-2.636,2.064-5.101,3.096-7.396
		c-0.575-0.229-1.091-0.602-1.548-1.118c-0.459-0.516-0.688-1.231-0.688-2.15c0-0.572,0.4-1.376,1.204-2.408
		c0.801-1.032,1.72-2.15,2.752-3.354c1.032-1.204,2.091-2.408,3.182-3.612c1.089-1.204,1.863-2.292,2.322-3.268
		c0.457-0.973,0.543-1.777,0.258-2.408C307.282,112.185,306.336,111.868,304.731,111.868z"/>
	<path style="fill:#BA1E3F;" d="M375.937,81.596c3.324,1.032,5.848,2.494,7.568,4.386s2.895,3.784,3.526,5.676
		c0.629,1.892,0.831,3.526,0.602,4.902c-0.231,1.376-0.688,2.064-1.376,2.064c-0.459,0-0.919-0.258-1.376-0.774
		c-0.459-0.516-1.263-1.032-2.408-1.548c-1.147-0.516-2.811-0.946-4.988-1.29c-2.18-0.344-5.16-0.401-8.944-0.172
		c-2.18,4.359-4.386,9.003-6.622,13.932c-2.236,4.932-4.33,9.804-6.278,14.62c-1.951,4.816-3.642,9.403-5.074,13.76
		c-1.435,4.359-2.467,8.229-3.096,11.61c-0.631,3.383-0.747,6.079-0.344,8.084c0.4,2.007,1.519,3.01,3.354,3.01
		c0.917,0,2.121-0.688,3.612-2.064c1.489-1.376,3.123-3.096,4.902-5.16c1.776-2.064,3.582-4.327,5.418-6.794
		c1.833-2.464,3.526-4.73,5.074-6.794s2.924-3.784,4.128-5.16c1.204-1.376,2.091-2.064,2.666-2.064c1.145,0,1.978,0.317,2.494,0.946
		c0.516,0.631,0.831,1.462,0.946,2.494c0.113,1.032,0.057,2.209-0.172,3.526c-0.231,1.319-0.575,2.666-1.032,4.042
		c-1.032,3.211-2.524,6.88-4.472,11.008c-3.096,5.62-6.479,10.551-10.148,14.792c-1.607,1.835-3.298,3.612-5.074,5.332
		c-1.779,1.72-3.698,3.211-5.762,4.472c-2.064,1.263-4.188,2.236-6.364,2.924c-2.179,0.688-4.416,0.919-6.708,0.688
		c-1.835-0.113-3.499-0.917-4.988-2.408c-1.492-1.489-2.752-3.354-3.784-5.59c-1.032-2.236-1.833-4.7-2.408-7.396
		c-0.573-2.693-0.86-5.302-0.86-7.826c0-4.241,0.43-8.858,1.29-13.846c0.86-4.988,1.978-10.175,3.354-15.566
		c1.376-5.389,3.01-10.807,4.902-16.254c1.892-5.445,3.87-10.691,5.934-15.738c-4.015,0.116-7.283-0.314-9.804-1.29
		c-2.521-0.973-4.442-2.236-5.762-3.784c-1.317-1.548-2.177-3.268-2.58-5.16c-0.4-1.892-0.542-3.612-0.43-5.16
		c0.115-1.548,0.43-2.865,0.946-3.956c0.516-1.088,1.005-1.634,1.462-1.634c0.688,0,1.177,0.489,1.462,1.462
		c0.288,0.976,1.062,1.951,2.322,2.924c1.263,0.976,3.295,1.75,6.106,2.322c2.809,0.575,7.079,0.459,12.814-0.344
		c3.209-6.764,6.278-12.239,9.202-16.426c2.924-4.185,5.187-6.278,6.794-6.278c0.688,0,2.121,0.43,4.3,1.29
		c2.177,0.86,4.3,1.951,6.364,3.268c2.064,1.32,3.698,2.725,4.902,4.214c1.204,1.491,1.231,2.867,0.086,4.128
		C380.121,74.488,378.229,77.355,375.937,81.596z"/>
	<path style="fill:#BA1E3F;" d="M369.54,150.912c0-9.401,1.862-17.458,5.59-24.166c3.725-6.708,8.111-12.212,13.158-16.512
		c5.044-4.3,10.119-7.482,15.222-9.546c5.101-2.064,9.03-3.096,11.782-3.096c2.865,0,5.217,0.403,7.052,1.204
		c1.833,0.804,3.327,1.806,4.482,3.01c1.154,1.204,1.963,2.553,2.425,4.042c0.462,1.491,0.693,2.867,0.693,4.128
		c0,2.983-0.376,5.59-1.126,7.826c-0.752,2.236-1.764,4.158-3.034,5.762c1.387,0.344,2.626,0.833,3.722,1.462
		c1.094,0.632,1.986,1.29,2.674,1.978c0.688,0.688,1.09,1.435,1.205,2.236c0.112,0.803-0.231,1.607-1.032,2.408
		c-1.376,1.376-2.989,3.612-4.832,6.708c-1.847,3.096-3.4,6.251-4.66,9.46c-1.263,3.211-1.951,6.05-2.064,8.514
		c-0.115,2.467,0.917,3.698,3.096,3.698c1.376,0,2.929-0.688,4.661-2.064c1.73-1.376,3.455-3.123,5.176-5.246
		c1.72-2.12,3.439-4.413,5.16-6.88c1.72-2.464,3.354-4.757,4.902-6.88c1.547-2.121,2.895-3.87,4.041-5.246
		c1.145-1.376,2.064-2.064,2.752-2.064c1.949,0,3.037,1.263,3.269,3.784c0.229,2.523-0.288,5.649-1.548,9.374
		c-1.264,3.728-3.126,7.77-5.59,12.126c-2.468,4.359-5.392,8.401-8.772,12.126c-3.384,3.728-7.144,6.853-11.282,9.374
		c-4.139,2.523-8.444,3.784-12.916,3.784c-3.327,0-5.762-1.002-7.31-3.01c-1.548-2.005-2.609-4.271-3.182-6.794
		c-0.688-2.98-0.86-6.305-0.516-9.976c-1.72,2.983-3.556,5.62-5.504,7.912c-1.607,1.951-3.383,3.728-5.332,5.332
		c-1.951,1.607-3.843,2.408-5.676,2.408c-1.951,0-3.899-0.516-5.848-1.548c-1.951-1.032-3.728-2.666-5.332-4.902
		c-1.607-2.236-2.924-5.044-3.956-8.428C370.056,159.829,369.54,155.728,369.54,150.912z M415.152,111.868
		c-3.44,0-6.651,1.032-9.632,3.096c-2.983,2.064-5.59,4.674-7.826,7.826c-2.236,3.155-4.071,6.536-5.504,10.148
		c-1.435,3.612-2.322,6.996-2.666,10.148c-0.344,3.155-0.145,5.762,0.602,7.826c0.744,2.064,2.207,3.096,4.386,3.096
		c1.949,0,3.698-0.774,5.246-2.322s2.951-3.467,4.214-5.762c1.261-2.292,2.408-4.757,3.44-7.396
		c1.032-2.636,2.064-5.101,3.096-7.396c-0.575-0.229-1.091-0.602-1.548-1.118c-0.459-0.516-0.688-1.231-0.688-2.15
		c0-0.572,0.4-1.376,1.204-2.408c0.801-1.032,1.72-2.15,2.752-3.354c1.032-1.204,2.091-2.408,3.182-3.612
		c1.089-1.204,1.863-2.292,2.322-3.268c0.457-0.973,0.543-1.777,0.258-2.408C417.703,112.185,416.757,111.868,415.152,111.868z"/>
	<path style="fill:#BA1E3F;" d="M529.186,131.648c1.146,0,1.979,0.317,2.494,0.946c0.516,0.631,0.801,1.491,0.861,2.58
		c0.057,1.091-0.031,2.295-0.258,3.612c-0.232,1.319-0.576,2.666-1.033,4.042c-1.031,3.211-2.523,6.88-4.473,11.008
		c-2.752,5.284-5.906,10.006-9.459,14.166c-2.982,3.583-6.596,6.848-10.836,9.793c-4.244,2.948-9.004,4.421-14.275,4.421
		c-3.328,0-5.994-0.916-7.998-2.752c-2.008-1.833-3.527-4.3-4.559-7.396c-1.031-3.096-1.607-6.708-1.721-10.836
		c-0.115-4.128,0.113-8.428,0.689-12.9c0.572-4.472,1.402-9.03,2.492-13.674c1.09-4.644,2.379-9.03,3.871-13.158
		c-1.264,2.064-3.125,5.219-5.59,9.46c-2.467,4.244-4.902,8.974-7.311,14.19c-2.408,5.219-4.502,10.637-6.277,16.254
		c-1.779,5.62-2.666,10.836-2.666,15.652c0,1.032-0.404,1.548-1.205,1.548c-3.326,0-6.25-0.745-8.771-2.236
		c-2.523-1.489-4.645-3.411-6.363-5.762c-1.721-2.349-3.04-4.988-3.957-7.912c-0.916-2.924-1.375-5.818-1.375-8.686
		c0-5.96,0.631-12.239,1.892-18.834c1.261-6.592,2.864-12.669,4.815-18.232c1.949-5.561,4.043-10.175,6.278-13.846
		c2.236-3.668,4.327-5.504,6.278-5.504c0.688,0,2.09,0.403,4.213,1.204c2.121,0.804,4.215,1.806,6.279,3.01
		c2.064,1.204,3.697,2.523,4.902,3.956c1.203,1.435,1.23,2.781,0.086,4.042c-2.984,3.44-5.85,8.17-8.602,14.19
		s-4.703,12.585-5.848,19.694c0.229-0.917,0.947-2.666,2.15-5.246c1.205-2.58,2.752-5.59,4.645-9.03s4.098-7.022,6.621-10.75
		c2.521-3.725,5.16-7.165,7.912-10.32c2.752-3.152,5.561-5.732,8.428-7.74c2.865-2.005,5.676-3.01,8.428-3.01
		c0.689,0,2.092,0.4,4.215,1.202c2.121,0.801,4.215,1.803,6.277,3.002c2.064,1.201,3.699,2.515,4.902,3.945
		c1.205,1.43,1.23,2.773,0.086,4.031c-1.607,1.83-3.326,4.375-5.16,7.632c-1.834,3.26-3.525,6.748-5.074,10.462
		c-1.547,3.717-2.924,7.49-4.127,11.32c-1.205,3.833-2.037,7.291-2.494,10.379c-0.459,3.088-0.402,5.604,0.172,7.547
		c0.572,1.945,1.777,2.916,3.611,2.916c1.377,0,2.924-0.688,4.645-2.064s3.467-3.123,5.246-5.246c1.777-2.12,3.525-4.413,5.246-6.88
		c1.721-2.464,3.354-4.757,4.902-6.88c1.547-2.121,2.895-3.87,4.041-5.246S528.498,131.648,529.186,131.648z"/>
	<path style="fill:#BA1E3F;" d="M521.757,150.912c0-9.401,1.862-17.458,5.59-24.166c3.726-6.708,8.111-12.212,13.158-16.512
		c5.045-4.3,10.118-7.482,15.222-9.546c5.102-2.064,9.03-3.096,11.782-3.096c2.865,0,5.217,0.403,7.052,1.204
		c1.833,0.804,3.327,1.806,4.483,3.01c1.152,1.204,1.962,2.553,2.424,4.042c0.462,1.491,0.693,2.867,0.693,4.128
		c0,2.983-0.376,5.59-1.126,7.826c-0.753,2.236-1.763,4.158-3.034,5.762c1.387,0.344,2.626,0.833,3.722,1.462
		c1.095,0.632,1.986,1.29,2.675,1.978c0.688,0.688,1.088,1.435,1.204,2.236c0.112,0.803-0.231,1.607-1.032,2.408
		c-1.376,1.376-2.988,3.612-4.832,6.708c-1.847,3.096-3.4,6.251-4.66,9.46c-1.264,3.211-1.951,6.05-2.064,8.514
		c-0.115,2.467,0.917,3.698,3.097,3.698c1.376,0,2.929-0.688,4.66-2.064c1.73-1.376,3.456-3.123,5.176-5.246
		c1.72-2.12,3.439-4.413,5.16-6.88c1.72-2.464,3.354-4.757,4.901-6.88c1.549-2.121,2.895-3.87,4.042-5.246
		c1.146-1.376,2.064-2.064,2.752-2.064c1.949,0,3.037,1.263,3.269,3.784c0.229,2.523-0.288,5.649-1.548,9.374
		c-1.264,3.728-3.126,7.77-5.59,12.126c-2.468,4.359-5.392,8.401-8.772,12.126c-3.384,3.728-7.144,6.853-11.282,9.374
		c-4.139,2.523-8.444,3.784-12.916,3.784c-3.327,0-5.762-1.002-7.31-3.01c-1.549-2.005-2.61-4.271-3.183-6.794
		c-0.688-2.98-0.859-6.305-0.516-9.976c-1.72,2.983-3.556,5.62-5.504,7.912c-1.607,1.951-3.384,3.728-5.332,5.332
		c-1.951,1.607-3.844,2.408-5.676,2.408c-1.951,0-3.9-0.516-5.849-1.548c-1.951-1.032-3.728-2.666-5.332-4.902
		c-1.606-2.236-2.924-5.044-3.956-8.428C522.272,159.829,521.757,155.728,521.757,150.912z M567.369,111.868
		c-3.44,0-6.651,1.032-9.632,3.096c-2.983,2.064-5.59,4.674-7.826,7.826c-2.236,3.155-4.071,6.536-5.504,10.148
		c-1.436,3.612-2.322,6.996-2.666,10.148c-0.344,3.155-0.146,5.762,0.602,7.826c0.745,2.064,2.207,3.096,4.387,3.096
		c1.948,0,3.697-0.774,5.246-2.322c1.548-1.548,2.95-3.467,4.214-5.762c1.26-2.292,2.408-4.757,3.439-7.396
		c1.032-2.636,2.064-5.101,3.097-7.396c-0.575-0.229-1.092-0.602-1.549-1.118c-0.459-0.516-0.688-1.231-0.688-2.15
		c0-0.572,0.4-1.376,1.204-2.408c0.801-1.032,1.72-2.15,2.752-3.354s2.091-2.408,3.182-3.612c1.089-1.204,1.862-2.292,2.322-3.268
		c0.457-0.973,0.543-1.777,0.258-2.408C569.92,112.185,568.974,111.868,567.369,111.868z"/>
	<path style="fill:#BA1E3F;" d="M600.391,187.892c-1.836-1.263-2.752-3.209-2.752-5.848c0-2.636,0.916-5.273,2.752-7.912
		c1.833-2.521,4.013-4.184,6.536-4.988c2.521-0.801,4.7-0.572,6.536,0.688c1.833,1.263,2.722,3.211,2.666,5.848
		c-0.06,2.639-1.006,5.219-2.838,7.74c-1.836,2.637-3.986,4.356-6.45,5.16C604.373,189.381,602.224,189.152,600.391,187.892z"/>
	<path style="fill:#BA1E3F;" d="M654.74,97.592c5.961,0.919,10.089,3.212,12.384,6.88c2.293,3.671,3.44,7.855,3.44,12.556
		c0,2.295-0.403,4.73-1.204,7.31c-0.804,2.58-1.865,4.961-3.182,7.138c-1.32,2.18-2.868,3.956-4.645,5.332
		c-1.779,1.376-3.642,2.064-5.59,2.064c-2.064,0-3.813-0.774-5.246-2.322c-1.436-1.548-2.467-3.208-3.096-4.988
		c-0.632-1.776-0.804-3.44-0.517-4.988c0.285-1.548,1.06-2.322,2.322-2.322c2.292,0,4.386-0.831,6.278-2.494
		c1.892-1.661,3.324-3.526,4.3-5.59c0.973-2.064,1.261-3.926,0.86-5.59c-0.403-1.661-1.693-2.494-3.87-2.494
		c-5.276,0-9.176,1.779-11.696,5.332c-2.523,3.556-3.784,7.799-3.784,12.728c0,2.983,0.774,5.762,2.322,8.342
		s3.268,5.219,5.16,7.912c1.892,2.696,3.639,5.534,5.246,8.514c1.604,2.983,2.407,6.251,2.407,9.804
		c0,6.308-2.123,11.468-6.363,15.48c-4.244,4.015-10.148,6.02-17.717,6.02c-4.128,0-7.282-0.86-9.46-2.58
		c-2.179-1.72-3.555-3.612-4.128-5.676c-0.572-2.064-0.488-3.956,0.259-5.676c0.744-1.72,1.978-2.58,3.697-2.58
		c0.688,0,1.06,0.288,1.118,0.86c0.057,0.575,0.086,1.177,0.086,1.806c0,0.631,0.172,1.233,0.517,1.806
		c0.344,0.575,1.26,0.86,2.752,0.86c1.948,0,3.295-0.745,4.042-2.236c0.744-1.489,1.117-3.381,1.117-5.676
		c0-2.752-0.747-5.418-2.235-7.998c-1.492-2.58-3.096-5.273-4.816-8.084c-1.72-2.809-3.327-5.818-4.815-9.03
		c-1.492-3.209-2.236-6.765-2.236-10.664c0-4.585,0.973-8.858,2.924-12.814c1.948-3.956,4.585-7.31,7.912-10.062
		c3.324-2.752,7.165-4.757,11.524-6.02C645.165,97.191,649.809,96.904,654.74,97.592z"/>
	<path style="fill:#BA1E3F;" d="M689.14,182.216c-2.295,0-4.674-0.629-7.138-1.892c-2.468-1.261-4.73-3.182-6.795-5.762
		c-2.063-2.58-3.757-5.818-5.073-9.718c-1.317-3.897-1.979-8.541-1.979-13.932c0-7.453,1.204-14.418,3.612-20.898
		c2.408-6.477,5.444-12.126,9.116-16.942c3.668-4.816,7.71-8.6,12.126-11.352c4.413-2.752,8.686-4.128,12.813-4.128
		c2.98,0,5.531,0.516,7.654,1.548c2.12,1.032,3.87,2.408,5.246,4.128c1.376,1.72,2.378,3.671,3.01,5.848
		c0.629,2.179,0.946,4.416,0.946,6.708c0,2.295-0.46,4.789-1.376,7.482c-0.919,2.695-2.094,5.189-3.526,7.482
		c-1.435,2.295-3.096,4.214-4.988,5.762c-1.892,1.548-3.813,2.322-5.762,2.322c-2.18,0-3.985-0.774-5.418-2.322
		c-1.435-1.548-2.438-3.208-3.01-4.988c-0.575-1.776-0.718-3.44-0.43-4.988c0.284-1.548,1.059-2.322,2.321-2.322
		c2.293,0,4.499-0.86,6.622-2.58c2.121-1.72,3.755-3.583,4.902-5.59c1.145-2.005,1.634-3.87,1.462-5.59
		c-0.172-1.72-1.405-2.58-3.698-2.58c-2.523,0-5.104,1.29-7.74,3.87c-2.639,2.58-5.018,5.792-7.138,9.632
		c-2.123,3.843-3.87,8.027-5.246,12.556c-1.376,4.531-2.094,8.715-2.149,12.556c-0.06,3.843,0.658,7.052,2.149,9.632
		c1.489,2.58,4.069,3.87,7.74,3.87c4.816,0,9.116-1.489,12.9-4.472c3.783-2.98,7.052-6.249,9.804-9.804
		c2.752-3.553,5.044-6.821,6.88-9.804c1.833-2.98,3.268-4.472,4.3-4.472c2.293,0,3.497,1.263,3.612,3.784
		c0.112,2.524-0.632,5.649-2.236,9.374c-1.606,3.728-3.929,7.799-6.966,12.212c-3.039,4.416-6.536,8.487-10.492,12.212
		c-3.956,3.728-8.17,6.853-12.642,9.374C698.084,180.956,693.611,182.216,689.14,182.216z"/>
	<path style="fill:#BA1E3F;" d="M812.635,118.576c1.72,0,2.895-0.573,3.525-1.72c0.629-1.145,0.802-2.435,0.517-3.87
		c-0.288-1.432-0.946-2.722-1.979-3.87c-1.031-1.145-2.295-1.72-3.783-1.72c-3.327,0-5.821,1.548-7.482,4.644
		c-1.663,3.096-2.494,6.996-2.494,11.696c0,2.868,0.744,6.91,2.236,12.126c1.488,5.219,3.152,10.75,4.988,16.598
		c0.801,2.18,1.604,4.587,2.407,7.224c0.801,2.639,1.548,5.219,2.236,7.74c0.688,2.524,1.23,4.932,1.634,7.224
		c0.4,2.295,0.603,4.187,0.603,5.676c0,2.983-0.517,5.875-1.548,8.686c-1.032,2.809-2.524,5.359-4.473,7.654
		c-1.951,2.292-4.359,4.128-7.224,5.504c-2.868,1.376-6.079,2.064-9.632,2.064c-2.868,0-5.677-0.43-8.429-1.29
		s-5.219-2.093-7.396-3.698c-2.18-1.607-3.93-3.612-5.246-6.02c-1.319-2.408-1.979-5.104-1.979-8.084
		c0-5.16,1.777-9.804,5.332-13.932c3.554-4.128,7.854-7.568,12.9-10.32c-1.263-4.241-2.494-8.485-3.698-12.728
		c-1.204-4.241-2.149-8.312-2.838-12.212c-2.408,2.295-5.018,4.73-7.826,7.31c-2.811,2.58-6.622,5.362-11.438,8.342
		c1.032,2.408,1.892,4.759,2.58,7.052c0.688,2.295,1.032,4.531,1.032,6.708c0,6.079-2.008,10.981-6.021,14.706
		c-4.015,3.728-9.575,5.59-16.684,5.59c-4.473,0-8.2-0.914-11.181-2.747c-2.982-1.83-4.472-4.52-4.472-8.068
		c0-4.235,1.089-8.011,3.268-11.33c2.178-3.316,5.045-6.407,8.601-9.27c-1.032-2.402-2.236-4.834-3.612-7.296
		c-1.376-2.459-2.666-4.918-3.87-7.38s-2.235-4.95-3.096-7.469c-0.86-2.518-1.29-4.98-1.29-7.382c0-4.233,1.032-8.065,3.096-11.5
		c2.064-3.435,4.73-6.353,7.998-8.756c3.269-2.402,6.907-4.235,10.922-5.493c4.013-1.258,7.969-1.889,11.868-1.889
		c2.637,0,5.045,0.427,7.225,1.282c2.177,0.854,4.042,1.938,5.59,3.249s2.723,2.819,3.525,4.529
		c0.801,1.709,1.204,3.416,1.204,5.125c0,3.534-0.976,6.525-2.924,8.974c-1.951,2.451-4.3,3.674-7.052,3.674
		c-1.492,0-2.726-0.285-3.698-0.86c-0.976-0.572-1.693-1.174-2.15-1.806c-0.459-0.629-0.688-1.231-0.688-1.806
		c0-0.572,0.285-0.86,0.86-0.86c1.72,0,2.895-0.573,3.525-1.72c0.629-1.145,0.831-2.435,0.603-3.87
		c-0.231-1.432-0.86-2.722-1.893-3.87c-1.031-1.145-2.295-1.72-3.784-1.72c-3.439,0-6.251,1.521-8.428,4.558
		c-2.18,3.04-3.268,6.91-3.268,11.61c0,1.263,0.258,2.609,0.773,4.042c0.517,1.435,1.175,2.954,1.979,4.558
		c0.801,1.607,1.661,3.241,2.58,4.902c0.916,1.664,1.776,3.298,2.58,4.902c13.528-7.452,20.925-14.332,22.188-20.64
		c0.457-3.784,1.69-7.192,3.698-10.226c2.005-3.034,4.442-5.595,7.31-7.681c2.865-2.086,6.047-3.666,9.546-4.738
		c3.497-1.07,7.022-1.607,10.578-1.607c2.752,0,5.217,0.427,7.396,1.282c2.177,0.854,4.013,1.938,5.504,3.249
		c1.489,1.312,2.637,2.819,3.439,4.529c0.802,1.709,1.204,3.416,1.204,5.125c0,3.534-0.945,6.525-2.838,8.974
		c-1.892,2.451-4.272,3.674-7.138,3.674c-1.491,0-2.726-0.285-3.698-0.86c-0.976-0.572-1.693-1.174-2.149-1.806
		c-0.46-0.629-0.661-1.231-0.603-1.806C811.745,118.864,812.06,118.576,812.635,118.576z M742.459,167.596
		c0-1.376-0.231-2.693-0.688-3.956c-2.295,1.491-4.101,3.01-5.418,4.558c-1.319,1.548-1.978,3.01-1.978,4.386
		c0,0.575,0.229,1.177,0.688,1.806c0.457,0.631,1.376,0.946,2.752,0.946c1.604,0,2.779-0.774,3.526-2.322
		C742.085,171.466,742.459,169.66,742.459,167.596z M792.339,182.56c0-1.489-0.258-3.381-0.774-5.676
		c-0.516-2.292-1.118-4.929-1.806-7.912c-3.327,2.295-6.05,4.73-8.17,7.31c-2.123,2.58-3.183,5.305-3.183,8.17
		c0,2.177,0.629,3.87,1.893,5.074c1.26,1.204,2.809,1.806,4.644,1.806c2.293,0,4.099-0.946,5.418-2.838
		C791.678,186.602,792.339,184.624,792.339,182.56z"/>
</g>
</svg>
